<svg xmlns="http://www.w3.org/2000/svg" version="1.1" xmlns:xlink="http://www.w3.org/1999/xlink" xmlns:svgjs="http://svgjs.dev/svgjs" width="1000" height="623" viewBox="0 0 1000 623"><g transform="matrix(1,0,0,1,-0.6060606060606233,0.2522267206477409)"><svg viewBox="0 0 396 247" data-background-color="#ffffff" preserveAspectRatio="xMidYMid meet" height="623" width="1000" xmlns="http://www.w3.org/2000/svg" xmlns:xlink="http://www.w3.org/1999/xlink"><g id="tight-bounds" transform="matrix(1,0,0,1,0.2400000000000091,-0.09999999999999432)"><svg viewBox="0 0 395.52 247.2" height="247.2" width="395.52"><g><svg></svg></g><g><svg viewBox="0 0 395.52 247.2" height="247.2" width="395.52"><g transform="matrix(1,0,0,1,136.27443296703296,47.215199999999996)"><svg viewBox="0 0 122.97113406593407 152.7696" height="152.7696" width="122.97113406593407"><g><svg viewBox="0 0 122.97113406593407 152.7696" height="152.7696" width="122.97113406593407"><g><svg viewBox="0 0 122.97113406593407 152.7696" height="152.7696" width="122.97113406593407"><g><svg viewBox="0 0 122.97113406593407 152.7696" height="152.7696" width="122.97113406593407"><g id="textblocktransform"><svg viewBox="0 0 122.97113406593407 152.7696" height="152.7696" width="122.97113406593407" id="textblock"><g><svg viewBox="0 0 122.97113406593407 152.7696" height="152.7696" width="122.97113406593407"><g transform="matrix(1,0,0,1,0,0)"><svg width="122.97113406593407" viewBox="1.9800000190734863 -35.54999923706055 28.610000610351562 35.54999923706055" height="152.7696" data-palette-color="#528265"><path d="M18.82 0L1.98 0 1.98-3.08 5.96-3.76 5.96-31.76 1.98-32.45 1.98-35.55 5.96-35.55 17.31-35.55Q22.88-35.55 26.01-33.14 29.15-30.74 29.15-25.93L29.15-25.93Q29.15-23.56 27.65-21.69 26.15-19.82 23.68-18.92L23.68-18.92Q25.83-18.48 27.37-17.2 28.91-15.92 29.75-14.07 30.59-12.23 30.59-10.03L30.59-10.03Q30.59-5.15 27.42-2.58 24.24 0 18.82 0L18.82 0ZM10.77-16.67L10.77-3.76 18.82-3.76Q22.12-3.76 23.94-5.38 25.76-7.01 25.76-9.99L25.76-9.99Q25.76-12.08 25.09-13.57 24.41-15.06 23.03-15.87 21.66-16.67 19.56-16.67L19.56-16.67 10.77-16.67ZM10.77-31.76L10.77-20.43 18.55-20.43Q21.14-20.43 22.74-21.94 24.34-23.44 24.34-26.03L24.34-26.03Q24.34-28.91 22.53-30.33 20.73-31.76 17.31-31.76L17.31-31.76 10.77-31.76Z" opacity="1" transform="matrix(1,0,0,1,0,0)" fill="#528265" class="undefined-text-0" data-fill-palette-color="primary" id="text-0"></path></svg></g></svg></g></svg></g></svg></g></svg></g></svg></g></svg></g><path d="M318.576 41.215L318.576 0 71.376 0 71.376 247.2 318.576 247.2 318.576 205.985 304.799 205.985 304.799 233.423 85.153 233.423 85.153 13.777 304.799 13.777 304.799 41.215Z" fill="#528265" stroke="transparent" data-fill-palette-color="primary"></path></svg></g><defs></defs></svg><rect width="395.52" height="247.2" fill="none" stroke="none" visibility="hidden"></rect></g></svg></g></svg>